<svg xmlns="http://www.w3.org/2000/svg" width="29.705" height="26.908" viewBox="0 0 29.705 26.908">
	<g id="audio-svgrepo-com_1_" data-name="audio-svgrepo-com (1)" transform="translate(0 -24.585)">
		<g id="Group_16129" data-name="Group 16129" transform="translate(0 24.585)">
			<g id="Group_16126" data-name="Group 16126" transform="translate(0 0)">
				<path id="Path_11573" data-name="Path 11573" d="M20.172,26a3.286,3.286,0,0,0-4.023-.411L7.1,31.263h-3.3A3.294,3.294,0,0,0,.5,34.554v7.9a3.294,3.294,0,0,0,3.291,3.291H7.077l9.072,5.686a3.288,3.288,0,0,0,5.038-2.788V28.377A3.277,3.277,0,0,0,20.172,26ZM18.75,38.5V48.644a.855.855,0,0,1-.856.855.846.846,0,0,1-.452-.132L8.277,43.622a2.05,2.05,0,0,0-1.089-.313h-3.4a.854.854,0,0,1-.854-.854v-7.9a.854.854,0,0,1,.854-.854H7.207A2.05,2.05,0,0,0,8.3,33.387l9.147-5.733a.845.845,0,0,1,.452-.132.855.855,0,0,1,.856.855V38.5Z" transform="translate(-0.472 -25.057)" fill="#404040" />
				<path id="Path_11574" data-name="Path 11574" d="M17.423,51.493a3.312,3.312,0,0,1-1.761-.508L6.6,45.3H3.319A3.323,3.323,0,0,1,0,41.984v-7.9a3.323,3.323,0,0,1,3.319-3.319h3.3l9.046-5.67a3.317,3.317,0,0,1,5.082,2.812V48.172a3.32,3.32,0,0,1-3.321,3.32ZM3.319,30.82A3.266,3.266,0,0,0,.057,34.082v7.9a3.266,3.266,0,0,0,3.262,3.262H6.614l.007,0,9.072,5.686a3.26,3.26,0,0,0,4.995-2.764V27.906a3.26,3.26,0,0,0-4.995-2.764L6.632,30.82Zm14.1,18.236a.878.878,0,0,1-.467-.136L7.79,43.175a2.019,2.019,0,0,0-1.073-.309h-3.4a.883.883,0,0,1-.882-.882v-7.9a.883.883,0,0,1,.882-.882H6.735a2.019,2.019,0,0,0,1.073-.309l9.147-5.733a.881.881,0,0,1,1.351.748V48.172A.885.885,0,0,1,17.423,49.056Zm-14.1-15.8a.826.826,0,0,0-.826.825v7.9a.827.827,0,0,0,.826.826h3.4a2.076,2.076,0,0,1,1.1.317l9.166,5.745a.824.824,0,0,0,1.264-.7V27.906a.824.824,0,0,0-1.264-.7L7.839,32.94a2.076,2.076,0,0,1-1.1.317Z" transform="translate(0 -24.585)" fill="#404040" />
			</g>
			<g id="Group_16127" data-name="Group 16127" transform="translate(21.76 6.801)">
				<path id="Path_11575" data-name="Path 11575" d="M385.4,145.323a1.218,1.218,0,1,0-2.182,1.085,11.51,11.51,0,0,1-.031,9.8,1.218,1.218,0,1,0,2.174,1.1,13.94,13.94,0,0,0,.039-11.988Z" transform="translate(-383.025 -144.618)" fill="#404040" />
				<path id="Path_11576" data-name="Path 11576" d="M383.805,157.536a1.234,1.234,0,0,1-.563-.135,1.248,1.248,0,0,1-.549-1.676,11.482,11.482,0,0,0,.031-9.777,1.247,1.247,0,1,1,2.233-1.11,13.969,13.969,0,0,1-.039,12.014A1.242,1.242,0,0,1,383.805,157.536Zm.035-13.333a1.19,1.19,0,0,0-1.065,1.72,11.539,11.539,0,0,1-.031,9.828,1.191,1.191,0,0,0,.523,1.6,1.189,1.189,0,0,0,1.6-.524,13.912,13.912,0,0,0,.039-11.963A1.184,1.184,0,0,0,383.84,144.2Z" transform="translate(-382.559 -144.147)" fill="#404040" />
			</g>
			<g id="Group_16128" data-name="Group 16128" transform="translate(25.207 3.465)">
				<path id="Path_11577" data-name="Path 11577" d="M444.4,86.128a1.218,1.218,0,0,0-.549,1.633,19.3,19.3,0,0,1-.052,16.474,1.218,1.218,0,1,0,2.174,1.1,21.731,21.731,0,0,0,.061-18.66A1.218,1.218,0,0,0,444.4,86.128Z" transform="translate(-443.636 -85.972)" fill="#404040" />
				<path id="Path_11578" data-name="Path 11578" d="M444.4,105.561a1.247,1.247,0,0,1-1.111-1.811,19.273,19.273,0,0,0,.052-16.448,1.248,1.248,0,0,1,.561-1.671,1.246,1.246,0,0,1,1.671.561,21.759,21.759,0,0,1-.061,18.685A1.241,1.241,0,0,1,444.4,105.561Zm.057-20a1.19,1.19,0,0,0-1.065,1.72,19.33,19.33,0,0,1-.052,16.5,1.19,1.19,0,1,0,2.123,1.076,21.7,21.7,0,0,0,.061-18.634A1.184,1.184,0,0,0,444.46,85.557Z" transform="translate(-443.157 -85.5)" fill="#404040" />
			</g>
		</g>
	</g>
</svg>
