<svg xmlns="http://www.w3.org/2000/svg" width="24.478" height="24.472" viewBox="0 0 24.478 24.472">
	<g id="gallery-svgrepo-com" transform="translate(-2.75 -2.75)">
		<path id="Path_11569" data-name="Path 11569" d="M22.261,27.222H7.711A4.96,4.96,0,0,1,2.75,22.261V7.711A4.961,4.961,0,0,1,7.711,2.75H22.261a4.96,4.96,0,0,1,4.961,4.961V22.261a4.96,4.96,0,0,1-4.961,4.961ZM7.711,4.734A2.976,2.976,0,0,0,4.734,7.711V22.261a2.976,2.976,0,0,0,2.976,2.976H22.261a2.976,2.976,0,0,0,2.976-2.976V7.711a2.976,2.976,0,0,0-2.976-2.976Z" fill="#404040" />
		<path id="Path_11570" data-name="Path 11570" d="M3.734,19.009a1.005,1.005,0,0,1-.767-.357A.992.992,0,0,1,3.1,17.329L9.317,12.17a4.947,4.947,0,0,1,6.971.635l1.482,1.773a2.976,2.976,0,0,0,4.246.331l3.545-3.175a1,1,0,1,1,1.323,1.495l-3.558,3.056a4.947,4.947,0,0,1-7.024-.5L14.82,14.009a2.99,2.99,0,0,0-4.246-.37L4.4,18.784A.952.952,0,0,1,3.734,19.009Z" transform="translate(0.008 2.67)" fill="#404040" />
	</g>
</svg>
