<svg xmlns="http://www.w3.org/2000/svg" width="72.898" height="72.898" viewBox="0 0 72.898 72.898">
	<path id="Icon_awesome-pause-circle" data-name="Icon awesome-pause-circle" d="M37.012.563A36.449,36.449,0,1,0,73.461,37.012,36.443,36.443,0,0,0,37.012.563ZM34.66,48.769a2.358,2.358,0,0,1-2.352,2.352H25.254A2.358,2.358,0,0,1,22.9,48.769V25.254A2.358,2.358,0,0,1,25.254,22.9h7.055a2.358,2.358,0,0,1,2.352,2.352Zm16.461,0a2.358,2.358,0,0,1-2.352,2.352H41.715a2.358,2.358,0,0,1-2.352-2.352V25.254A2.358,2.358,0,0,1,41.715,22.9h7.055a2.358,2.358,0,0,1,2.352,2.352Z" transform="translate(-0.563 -0.563)" fill="#ff232a" />
</svg>
