<svg xmlns="http://www.w3.org/2000/svg" width="27.449" height="20.586" viewBox="0 0 27.449 20.586">
	<g id="video-svgrepo-com" transform="translate(0 -3)">
		<path id="Path_11571" data-name="Path 11571" d="M2,4.716A.286.286,0,0,0,1.716,5V21.585A.286.286,0,0,0,2,21.871H25.447a.286.286,0,0,0,.286-.286V5a.286.286,0,0,0-.286-.286ZM0,5A2,2,0,0,1,2,3H25.447a2,2,0,0,1,2,2V21.585a2,2,0,0,1-2,2H2a2,2,0,0,1-2-2Z" fill="#ff232a" fill-rule="evenodd" />
		<path id="Path_11572" data-name="Path 11572" d="M9,16.686v-8.2a.572.572,0,0,1,.881-.48l6.377,4.1a.572.572,0,0,1,0,.963l-6.377,4.1A.572.572,0,0,1,9,16.687Z" transform="translate(1.293 0.706)" fill="#ff232a" />
	</g>
</svg>
